<?xml version="1.0" standalone="no"?>
<!DOCTYPE svg PUBLIC "-//W3C//DTD SVG 20010904//EN"
 "http://www.w3.org/TR/2001/REC-SVG-20010904/DTD/svg10.dtd">
<svg version="1.0" xmlns="http://www.w3.org/2000/svg"
 width="259.000000pt" height="194.000000pt" viewBox="0 0 259.000000 194.000000"
 preserveAspectRatio="xMidYMid meet">

<g transform="translate(0.000000,194.000000) scale(0.100000,-0.100000)"
fill="#000000" stroke="none">
<path d="M920 970 l0 -270 380 0 380 0 0 270 0 270 -380 0 -380 0 0 -270z
m690 -5 l0 -205 -312 2 -313 3 -3 203 -2 202 315 0 315 0 0 -205z"/>
<path d="M1422 1098 c-19 -19 -14 -55 10 -72 12 -9 26 -16 30 -16 13 0 48 39
48 54 0 37 -61 61 -88 34z"/>
<path d="M1078 950 c-27 -49 -48 -100 -48 -114 l0 -26 252 0 c211 0 250 2 238
13 -8 8 -53 47 -99 87 l-84 73 -23 -39 c-13 -22 -24 -43 -24 -49 0 -5 -35 25
-78 68 -42 42 -80 77 -82 77 -3 0 -26 -41 -52 -90z"/>
</g>
</svg>
